PathFileType	4	(X/Y/Z)	C:/Users/opensim2020/Desktop/walking_exp_matlab/subject02_walking12_straight_03.trc																																																																																																																												
DataRate	CameraRate	NumFrames	NumMarkers	Units	OrigDataRate	OrigDataStartFrame	OrigNumFrames																																																																																																																								
100	100	5	42	mm	100	1621	127																																																																																																																								
Frame#	Time	LFHD			RFHD			LBHD			RBHD			C7			T10			CLAV			STRN			RBAK			LSHO			LUPA			LELB			LFRM			LWRA			LWRB			LFIN			RSHO			RUPA			RELB			RFRM			RWRA			RWRB			RFIN			LASI			RASI			LPSI			RPSI			LTHI			LKNE			LTIB			LANK			LHEE			LTOE			RTHI			RKNE			RTIB			RANK			RHEE			RTOE			*39			*40			*41		
		X1	Y1	Z1	X2	Y2	Z2	X3	Y3	Z3	X4	Y4	Z4	X5	Y5	Z5	X6	Y6	Z6	X7	Y7	Z7	X8	Y8	Z8	X9	Y9	Z9	X10	Y10	Z10	X11	Y11	Z11	X12	Y12	Z12	X13	Y13	Z13	X14	Y14	Z14	X15	Y15	Z15	X16	Y16	Z16	X17	Y17	Z17	X18	Y18	Z18	X19	Y19	Z19	X20	Y20	Z20	X21	Y21	Z21	X22	Y22	Z22	X23	Y23	Z23	X24	Y24	Z24	X25	Y25	Z25	X26	Y26	Z26	X27	Y27	Z27	X28	Y28	Z28	X29	Y29	Z29	X30	Y30	Z30	X31	Y31	Z31	X32	Y32	Z32	X33	Y33	Z33	X34	Y34	Z34	X35	Y35	Z35	X36	Y36	Z36	X37	Y37	Z37	X38	Y38	Z38	X39	Y39	Z39	X40	Y40	Z40	X41	Y41	Z41	X42	Y42	Z42
																																																																																																																															
96	0.95	601.45795	1741.60852	-961.27472	550.49347	1714.85974	-828.80017	479.28671	1675.50366	-1021.0495	416.7067	1648.32825	-893.95862	395.56183	1530.16895	-956.24036	339.03195	1253.63318	-956.85724	533.30347	1460.34912	-964.05408	583.5517	1287.67273	-954.35645	334.95203	1355.92517	-892.13654	466.60764	1504.68542	-1134.1366	427.64969	1307.85596	-1217.40662	407.47083	1170.1449	-1230.12183	390.37271	1042.69495	-1253.39294	416.89322	903.5899	-1230.98669	375.63403	920.08759	-1266.2251	376.14902	852.61938	-1271.20288	469.03943	1495.25769	-770.52612	467.06326	1310.83008	-674.3717	511.51364	1168.40527	-646.11841	590.25244	1074.21167	-638.21667	689.56232	987.99109	-667.64026	652.24615	959.05157	-635.58582	716.43921	926.84705	-635.61548	579.14038	996.91168	-1083.19556	558.83026	973.37946	-828.09521	364.71198	1038.125	-1018.46381	350.30399	1036.25488	-904.37848	589.13281	697.95728	-1162.75159	621.25714	500.61176	-1135.24158	603.56702	306.88022	-1132.82837	660.09076	87.53745	-1114.35938	642.57172	56.01147	-1057.14478	812.10193	75.95904	-1151.68115	452.80072	666.77704	-793.83344	424.21545	460.01129	-847.06213	355.93924	283.48434	-851.01654	311.74091	96.75898	-901.5072	272.87015	45.58043	-960.11639	458.10495	39.09134	-881.10449	477.047	1807.86877	-907.88019	2845.06201	1034.26257	-3360.17334	NaN	NaN	NaN
97	0.96	613.50958	1739.62524	-961.29401	562.42572	1713.35425	-828.58008	491.20618	1673.68787	-1021.06372	428.55838	1646.90613	-893.82819	407.14981	1528.49548	-956.09753	350.586	1252.02307	-957.52319	544.91003	1458.50513	-963.52948	594.89728	1285.79663	-953.40887	346.21561	1354.27002	-892.32727	478.69089	1502.55078	-1133.89868	436.82233	1306.02576	-1216.17651	414.10794	1168.875	-1228.0365	393.16745	1042.46191	-1251.70496	414.74197	902.24182	-1229.8761	374.47025	920.66681	-1265.38501	371.80472	853.06866	-1270.26477	479.85187	1493.86804	-770.41522	479.53693	1309.80225	-673.51587	526.68854	1168.2168	-644.31787	607.47144	1075.81152	-636.46722	708.23987	991.4231	-666.42151	671.8111	961.94238	-633.66077	736.58929	931.18048	-633.95142	591.74121	994.91095	-1082.21387	569.63824	972.25916	-826.82715	376.70187	1035.99622	-1019.12463	361.09067	1034.31055	-905.34424	600.65338	695.3598	-1161.04004	634.91418	498.66672	-1133.69324	626.39069	304.03885	-1132.52087	693.99353	87.4909	-1115.42822	677.0354	55.06981	-1058.50586	847.2561	82.72687	-1150.26807	459.25397	665.84125	-793.47205	428.41751	459.40057	-847.05042	357.82285	283.72964	-851.13641	312.29575	97.36055	-901.98444	273.61932	46.07903	-960.94946	458.31186	39.04372	-880.73975	489.28271	1806.22949	-908.02185	2845.27417	1034.22327	-3360.32617	NaN	NaN	NaN
98	0.97	625.59076	1737.54529	-961.39252	574.46796	1711.61523	-828.69025	503.15247	1671.71228	-1021.0332	440.65186	1645.31409	-893.65149	418.8793	1526.67615	-956.02252	362.25732	1250.27002	-958.23901	556.6283	1456.53345	-963.1142	606.39636	1283.88696	-952.58899	357.54379	1352.44128	-892.6134	490.81808	1500.31213	-1133.66992	446.06775	1304.12756	-1214.93958	420.85522	1167.97729	-1226.24304	396.13718	1042.38293	-1250.28967	413.25574	901.19781	-1228.87061	373.82437	921.48602	-1264.4563	368.12082	853.78326	-1269.22473	490.94363	1492.3092	-770.22217	492.82965	1308.77942	-672.49268	542.06555	1168.14758	-642.49603	624.4538	1077.11267	-634.72339	726.22205	994.45746	-665.0307	690.9364	964.62872	-631.77069	756.17255	934.91553	-632.28064	604.36133	992.85883	-1081.18481	579.60333	970.64343	-825.6781	388.82773	1033.75269	-1019.77527	371.95572	1032.24475	-906.35919	611.83728	692.38501	-1160.1167	648.49042	496.56104	-1132.48621	648.99323	301.98376	-1132.60266	726.60547	88.61407	-1116.51636	709.6983	55.02	-1060.13489	880.94159	89.81274	-1147.97021	465.83344	664.94006	-793.06055	433.02344	458.8642	-847.10858	360.01428	284.09662	-851.52502	312.77478	98.00836	-902.52716	274.01227	46.99538	-961.71924	458.25131	38.97956	-880.69305	501.43463	1804.38953	-908.3728	2845.07739	1034.23389	-3360.31299	NaN	NaN	NaN
99	0.98	637.68396	1735.34241	-961.51703	586.50317	1709.77002	-828.93073	515.11151	1669.69177	-1021.14075	452.41071	1643.65259	-893.77948	430.49438	1524.7793	-956.0661	374.02386	1248.34314	-958.961	568.43048	1454.4552	-962.74554	617.87482	1281.73389	-951.81219	368.93076	1350.46692	-893.0329	502.99667	1498.03296	-1133.5293	455.22137	1302.36121	-1214.09558	427.82254	1166.80139	-1224.52271	399.53979	1042.36682	-1248.91077	412.53058	900.39514	-1227.98291	373.72208	922.21765	-1263.49768	365.30008	854.71124	-1268.18384	502.21313	1490.58301	-769.88013	505.72589	1307.35767	-671.86603	556.94702	1167.71594	-641.00262	640.95868	1078.18591	-632.81641	744.47754	997.34009	-663.2713	709.51117	966.94696	-629.92462	775.4231	938.58771	-630.60724	617.1557	990.70728	-1080.09949	590.27716	969.14551	-824.6283	400.94971	1031.37024	-1020.44769	382.99802	1029.96948	-907.52094	622.46857	689.29755	-1159.29041	662.16046	494.28024	-1131.50708	671.1972	300.39496	-1133.10303	757.88257	90.44383	-1117.34644	740.84747	55.56064	-1061.59363	913.00232	96.78687	-1144.6521	472.23526	664.0592	-792.67487	437.22235	458.25748	-846.94843	362.20517	284.51746	-851.84027	313.44788	98.74377	-903.08099	274.31232	47.96489	-962.51947	458.32532	38.91214	-880.48999	513.60986	1802.69189	-908.6922	2845.89282	1034.1886	-3357.55371	NaN	NaN	NaN
100	0.99	649.81006	1733.06421	-961.61902	598.68207	1707.8269	-828.77521	527.1723	1667.43494	-1021.05402	463.96725	1641.43921	-893.80811	442.17783	1522.78418	-956.14929	385.96082	1246.25476	-959.677	580.2887	1452.29919	-962.54956	629.55963	1279.65149	-951.21667	380.38898	1348.33459	-893.53461	515.15845	1495.66272	-1133.47681	464.7005	1300.60889	-1213.3927	434.87698	1165.73254	-1223.15173	403.20999	1042.33862	-1247.67761	412.63779	899.79834	-1227.26733	374.2934	923.01788	-1262.49768	363.31802	855.76843	-1267.06116	512.96613	1488.54846	-769.93707	517.89642	1305.86157	-671.40588	571.65485	1167.02014	-639.72186	657.1355	1078.85974	-631.37317	761.91272	999.66357	-661.65863	727.56421	968.94873	-628.13342	793.85565	941.6286	-628.78235	629.9314	988.54175	-1078.99744	600.44611	967.35522	-823.64142	413.2084	1029.06885	-1021.10657	394.1507	1027.6991	-908.69006	632.9649	686.40173	-1158.79468	676.12195	492.23029	-1130.71021	692.82727	299.23557	-1133.68726	787.4519	92.57151	-1117.84949	770.01105	56.78299	-1062.59424	943.41876	103.50894	-1140.23181	478.81348	663.19501	-792.10956	442.28	457.74805	-846.84937	364.60406	285.01617	-852.11041	314.01401	99.63375	-903.61469	275.18835	48.98101	-963.30322	458.42584	38.82931	-880.27362	525.8241	1800.65332	-909.07764	2845.09814	1034.26733	-3360.43188	NaN	NaN	NaN
